<svg width="400" height="400" viewBox="0 0 740 690" fill="none" xmlns="http://www.w3.org/2000/svg">
    <ellipse cx="387.657" cy="339.52" rx="247.343" ry="247.343" fill="#00ADB5"/>
    <path d="M388.92 542.781C373.07 542.161 362.033 540.446 355.808 537.636C349.649 535.085 345.676 530.321 343.89 523.347C341.905 515.597 340.934 504.284 340.978 489.408C340.955 474.273 341.569 457.325 342.819 438.561C344.327 419.731 346.412 399.928 349.074 379.151C351.735 358.374 354.724 338.34 358.041 319.047C361.358 299.754 364.813 282.077 368.407 266.016C372.194 249.631 375.903 236.707 379.535 227.243L372.654 211.663C376.271 210.737 381.54 210.351 388.461 210.505C395.382 210.659 402.403 211.201 409.523 212.13C416.901 212.993 423.408 214.216 429.044 215.801C434.872 217.061 438.276 218.529 439.256 220.205C439.552 226.735 440.934 236.429 443.401 249.286C445.802 261.884 448.822 275.287 452.461 289.495C459.673 317.653 467.786 345.029 476.8 371.624C486.007 397.895 498.187 423.954 513.341 449.803C512.181 428.078 511.312 406.416 510.735 384.817C510.35 362.894 510.359 341.97 510.761 322.048C511.098 301.866 511.798 283.106 512.863 265.766C513.927 248.427 515.262 233.22 516.868 220.146C518.667 206.747 520.773 196.16 523.186 188.385C525.532 180.352 528.319 175.646 531.545 174.27C534.519 174.058 537.916 174.427 541.738 175.375C545.493 176.065 549.218 177.175 552.914 178.706C556.609 180.237 560.112 182.093 563.423 184.273C566.735 186.453 569.529 188.765 571.807 191.209C564.4 196.685 558.152 206.681 553.061 221.198C548.229 235.649 544.35 252.746 541.424 272.49C538.69 291.909 536.741 312.778 535.576 335.099C534.669 357.353 534.342 379.183 534.595 400.59C535.039 421.672 536.025 441.102 537.55 458.88C539.334 476.591 541.419 490.646 543.808 501.045C543.94 501.562 544.169 501.917 544.493 502.109C543.784 502.565 542.913 502.926 541.88 503.191C541.105 503.389 540.33 503.588 539.555 503.786C527.672 506.83 516.683 507.993 506.59 507.275C496.82 506.749 489.82 504.138 485.589 499.441C474.606 479.13 464.726 459.364 455.949 440.141C447.171 420.917 438.91 401.562 431.166 382.074C423.68 362.52 416.549 342.737 409.772 322.726C403.187 302.391 396.629 281.085 390.097 258.809C387.174 267.816 384.621 279.343 382.438 293.391C380.189 307.18 378.4 322.228 377.071 338.534C375.743 354.841 374.741 371.889 374.068 389.679C373.652 407.403 373.654 424.607 374.074 441.291C374.493 457.976 375.489 473.686 377.062 488.424C378.568 502.903 380.645 515.309 383.291 525.642C384.681 531.067 385.673 534.942 386.269 537.267C387.122 539.526 388.006 541.364 388.92 542.781Z"
          fill="#222831"/>
    <path d="M269.445 403.784C258.104 405.45 248.048 402.864 239.277 396.027C230.506 389.189 224.433 379.183 221.059 366.008C219.074 358.258 218.177 349.92 218.368 340.994C218.559 332.067 219.794 323.183 222.071 314.341C224.299 305.306 227.426 296.557 231.452 288.093C235.477 279.63 240.236 272.011 245.727 265.236C254.348 254.564 263.309 248.036 272.609 245.654C279.652 247.36 287.517 252.675 296.203 261.599C297.171 261.35 298.043 261.127 298.818 260.929C299.543 260.536 300.391 260.216 301.359 259.968C311.628 257.338 319.094 265.129 323.759 283.341C326.885 295.547 327.828 307.693 326.588 319.779C325.492 331.621 322.501 342.916 317.616 353.665C312.923 364.363 306.431 374.078 298.138 382.809C289.989 391.296 280.425 398.288 269.445 403.784ZM260.819 308.443C258.667 313.743 256.807 319.38 255.241 325.356C253.675 331.331 252.521 337.304 251.779 343.275C250.988 349.052 250.656 354.608 250.784 359.943C250.862 365.085 251.397 369.593 252.389 373.468C253.58 378.118 255.497 382.375 258.139 386.241C260.78 390.106 263.144 392.081 265.231 392.166C273.453 387.996 280.478 382.377 286.307 375.31C292.28 367.999 296.865 359.702 300.061 350.419C303.452 341.086 305.31 331.009 305.635 320.19C306.155 309.322 304.951 298.172 302.023 286.741C300.733 281.703 299.425 277.806 298.099 275.049C296.773 272.291 295.16 270.021 293.258 268.237C285.378 272.939 278.767 278.968 273.425 286.323C268.277 293.629 264.075 301.002 260.819 308.443Z"
          fill="white"/>
    <path d="M146.131 390.116C141.499 372.033 139.033 353.808 138.734 335.442C138.626 316.75 140.462 298.663 144.242 281.178C147.956 263.435 153.454 246.749 160.737 231.12C168.213 215.166 177.055 200.789 187.265 187.989C197.734 175.123 209.539 164.253 222.682 155.382C235.759 146.251 249.918 139.735 265.16 135.831C282.984 131.265 297.764 131.471 309.499 136.448C321.493 141.36 329.21 150.532 332.651 163.965C333.974 169.131 334.555 174.625 334.395 180.447C334.493 186.203 333.816 192.157 332.363 198.31C331.103 204.138 329.294 209.969 326.934 215.804C324.575 221.639 321.663 226.927 318.197 231.668C311.216 232.355 304.643 230.873 298.477 227.222C292.246 223.312 287.624 218.165 284.612 211.779C291.735 201.972 296.854 192.402 299.969 183.071C303.277 173.415 304.071 165.229 302.35 158.512C299.439 147.146 290.879 143.282 276.671 146.921C270.73 148.443 264.861 151.323 259.064 155.56C253.46 159.473 247.991 164.452 242.658 170.498C237.324 176.544 232.352 183.461 227.74 191.248C223.386 198.97 219.585 207.238 216.338 216.053C193.663 276.916 189.24 334.342 203.069 388.333C207.965 407.449 214.873 422.059 223.792 432.161C232.711 442.264 242.343 447.092 252.689 446.644C263.135 441.216 275.395 430.506 289.467 414.514C303.539 398.523 318.268 378.647 333.654 354.886C336.898 356.808 339.143 359.123 340.388 361.832C335.41 373.568 330.076 384.982 324.383 396.074C318.691 407.167 312.8 417.484 306.711 427.027C300.88 436.503 294.817 445.076 288.523 452.744C282.487 460.346 276.637 466.524 270.973 471.278C238.808 478.966 212.176 476.015 191.078 462.425C169.979 448.835 154.997 424.732 146.131 390.116Z"
          fill="#222831"/>
</svg>
